<svg xmlns="http://www.w3.org/2000/svg" width="60" height="60" fill="none" viewBox="0 0 60 60"><path fill="#fff" fill-opacity=".6" d="M28.4623 8.1551C27.5273 7.77139 26.4523 7.98318 25.7373 8.69578L15.0048 20.4213H7.50479C6.12979 20.4213 5.00479 21.545 5.00479 22.9129V37.8625C5.00479 39.2329 6.12979 40.3541 7.50479 40.3541H15.0048L25.7373 52.0846C26.4523 52.7972 27.5273 53.0115 28.4623 52.6253C29.3973 52.2391 30.0048 51.3296 30.0048 50.3205V10.4549C30.0048 9.45073 29.3973 8.53631 28.4623 8.1551ZM35.0048 12.9462V17.9295C41.8973 17.9295 47.5048 23.5206 47.5048 30.3876C47.5048 37.257 41.8973 42.8457 35.0048 42.8457V47.8289C44.6548 47.8289 52.5048 40.0077 52.5048 30.3876C52.5048 20.7724 44.6548 12.9462 35.0048 12.9462ZM35.0048 22.9127C39.1398 22.9127 42.5048 26.269 42.5048 30.3876C42.5048 34.5113 39.1398 37.8625 35.0048 37.8625V32.8792C36.3823 32.8792 37.5048 31.7605 37.5048 30.3876C37.5048 29.0148 36.3823 27.896 35.0048 27.896V22.9127Z"/></svg>