<?xml version="1.0" encoding="UTF-8"?>
<svg width="256mm" height="256mm" version="1.1" viewBox="0 0 256 256" xml:space="preserve" xmlns="http://www.w3.org/2000/svg"><g fill="#00ff80"><circle cx="128" cy="128" r="123.11" fill-opacity=".2" stroke="#00ff80" stroke-linecap="square" stroke-linejoin="round" stroke-miterlimit="200" stroke-width="9.774" style="paint-order:normal"/><g transform="matrix(5.0932 0 0 5.0932 42.143 39.067)"><path d="m34.347 16.893-8.899-3.294-3.323-10.891c-0.128-0.42-0.517-0.708-0.956-0.708s-0.828 0.288-0.956 0.708l-3.322 10.891-8.9 3.294c-0.393 0.146-0.653 0.519-0.653 0.938 0 0.418 0.26 0.793 0.653 0.938l8.895 3.293 3.324 11.223c0.126 0.424 0.516 0.715 0.959 0.715 0.442 0 0.833-0.291 0.959-0.716l3.324-11.223 8.896-3.293c0.391-0.144 0.652-0.518 0.652-0.937 0-0.418-0.261-0.792-0.653-0.938z"/><path d="m14.347 27.894-2.314-0.856-0.9-3.3c-0.118-0.436-0.513-0.738-0.964-0.738s-0.846 0.302-0.965 0.737l-0.9 3.3-2.313 0.856c-0.393 0.145-0.653 0.52-0.653 0.938s0.26 0.793 0.653 0.938l2.301 0.853 0.907 3.622c0.112 0.444 0.511 0.756 0.97 0.756s0.858-0.312 0.97-0.757l0.907-3.622 2.301-0.853c0.393-0.144 0.653-0.519 0.653-0.937s-0.26-0.793-0.653-0.937zm-4.338-21.663-2.364-0.875-0.876-2.365c-0.145-0.393-0.519-0.653-0.938-0.653-0.418 0-0.792 0.26-0.938 0.653l-0.875 2.365-2.365 0.875c-0.393 0.146-0.653 0.52-0.653 0.938s0.26 0.793 0.653 0.938l2.365 0.875 0.875 2.365c0.146 0.393 0.52 0.653 0.938 0.653s0.792-0.26 0.938-0.653l0.875-2.365 2.365-0.875c0.393-0.146 0.653-0.52 0.653-0.938s-0.26-0.792-0.653-0.938z"/></g></g></svg>
