<svg xmlns="http://www.w3.org/2000/svg" width="60" height="60" fill="none" viewBox="0 0 60 60"><path fill="#fff" fill-opacity=".6" fill-rule="evenodd" d="M20.1574 44.1385H8.03448C6.96447 44.1385 5.9383 43.7133 5.18167 42.9568C4.42507 42.2002 4 41.174 4 40.1039V25.3108C4 20.3174 5.9836 15.5286 9.51447 11.9977C13.0453 8.46688 17.8342 6.48328 22.8276 6.48328C27.8209 6.48328 32.6099 8.46688 36.1407 11.9977C37.7327 13.5899 39.0103 15.4378 39.9332 17.445C44.0869 18.0607 47.9348 20.0516 50.8445 23.1251C54.155 26.6218 56 31.254 56 36.0695V50.8625C56 51.9326 55.5751 52.9588 54.8183 53.7154C54.0617 54.4719 53.0355 54.8971 51.9657 54.8971H37.1724C33.2787 54.8971 29.4807 53.6901 26.3011 51.4426C23.6513 49.5697 21.5395 47.0505 20.1574 44.1385ZM13.3182 15.8015C15.8403 13.2795 19.2609 11.8626 22.8276 11.8626C26.3943 11.8626 29.8149 13.2795 32.3371 15.8015C34.8589 18.3235 36.2759 21.7442 36.2759 25.3109C36.2759 28.8776 34.8589 32.2983 32.3371 34.8204C29.8149 37.3422 26.3943 38.7592 22.8276 38.7592H21.9746C21.9602 38.7589 21.9458 38.7589 21.9314 38.7592H9.37931V25.3108C9.37931 21.7441 10.7962 18.3235 13.3182 15.8015ZM26.19 43.8358C27.0669 45.0746 28.1521 46.1637 29.4061 47.0499C31.6775 48.6557 34.391 49.5178 37.1724 49.5178H50.6207V36.0695C50.6207 32.6299 49.3027 29.3211 46.9381 26.8234C45.4362 25.237 43.5846 24.0544 41.5533 23.3544C41.621 24.0014 41.6552 24.6544 41.6552 25.3109C41.6552 30.3042 39.6716 35.0932 36.1407 38.624C33.4129 41.3519 29.9339 43.1561 26.19 43.8358Z" clip-rule="evenodd"/></svg>