<svg width="60" height="60" viewBox="0 0 60 60" fill="none" xmlns="http://www.w3.org/2000/svg">
<path d="M15.085 52.6504C14.3072 52.6504 13.7183 51.9453 13.8542 51.177L15.3686 42.6167H6.8563C6.07975 42.6167 5.49115 41.9138 5.625 41.1462L6.0625 38.6378C6.16718 38.0377 6.68658 37.5998 7.2938 37.5998H16.2436L18.8936 22.5491H10.3813C9.60476 22.5491 9.01616 21.8461 9.15001 21.0787L9.58751 18.5702C9.69218 17.9701 10.2116 17.5322 10.8188 17.5322H19.7686L21.3605 8.53345C21.4664 7.93466 21.9851 7.49841 22.5912 7.49841H25.0521C25.8298 7.49841 26.4188 8.20346 26.2828 8.97182L24.7686 17.5322H39.7686L41.3605 8.53345C41.4663 7.93466 41.9851 7.49841 42.5913 7.49841H45.0521C45.8298 7.49841 46.4188 8.20346 46.2828 8.97182L44.7686 17.5322H53.2808C54.0573 17.5322 54.6461 18.2351 54.5121 19.0026L54.0746 21.5111C53.9701 22.1112 53.4506 22.5491 52.8433 22.5491H43.8936L41.2436 37.5998H49.7558C50.5323 37.5998 51.1211 38.3026 50.9871 39.0702L50.5496 41.5787C50.4451 42.1787 49.9256 42.6167 49.3183 42.6167H40.3685L38.7766 51.6155C38.6708 52.2142 38.1521 52.6504 37.5458 52.6504H35.085C34.3073 52.6504 33.7183 51.9453 33.8543 51.177L35.3685 42.6167H20.3686L18.7767 51.6155C18.6707 52.2142 18.152 52.6504 17.5459 52.6504H15.085ZM23.8947 22.5491L21.2447 37.5998H36.2445L38.8946 22.5491H23.8947Z" fill="white" fill-opacity="0.6"/>
</svg>
