<svg xmlns="http://www.w3.org/2000/svg" version="1.1" viewBox="0 0 110 26"><path fill="#fff" d="m16.68 0.99c-3.13 0.04-9.66 0.17-11.69 0.69-1.49 0.4-2.59 1.6-2.99 3-0.69 2.7-0.68 8.31-0.68 8.31s-0.01 5.61 0.68 8.31c0.39 1.5 1.59 2.6 2.99 3 2.69 0.7 13.4 0.68 13.4 0.68s10.7 0.01 13.4-0.68c1.5-0.4 2.59-1.6 2.99-3 0.69-2.7 0.68-8.31 0.68-8.31s0.11-5.61-0.68-8.31c-0.4-1.5-1.59-2.6-2.99-3-2.68-0.7-13.39-0.69-13.39-0.69s-0.67-0.01-1.71 0zm72.21 0.9v21.28h2.78l0.31-1.37h0.09c0.3 0.5 0.71 0.88 1.21 1.18s1.08 0.4 1.68 0.4c1.1 0 1.99-0.49 2.49-1.59s0.81-2.7 0.81-4.9v-2.4c0-1.6-0.11-2.9-0.31-3.9-0.2-0.89-0.5-1.59-1-2.09-0.5-0.4-1.1-0.59-1.9-0.59-0.59 0-1.18 0.19-1.68 0.49-0.49 0.3-1.01 0.8-1.21 1.4v-7.9h-3.28zm-49.99 0.78 3.9 13.9 0.18 6.71h3.31v-6.71l3.87-13.9h-3.37l-1.4 6.31c-0.4 1.89-0.71 3.19-0.81 3.99h-0.09c-0.2-1.1-0.51-2.4-0.81-3.99l-1.37-6.31h-3.4zm29.59 0v2.71h3.4v17.9h3.28v-17.9h3.4s0-2.71-0.09-2.71h-9.99zm-53.49 5.12 8.9 5.18-8.9 5.09v-10.28zm89.4 0.09c-1.7 0-2.89 0.59-3.59 1.59-0.69 0.99-0.99 2.6-0.99 4.9v2.59c0 2.2 0.3 3.9 0.99 4.9 0.7 1.1 1.8 1.59 3.5 1.59 1.4 0 2.38-0.3 3.18-1 0.7-0.7 1.09-1.69 1.09-3.09v-0.5l-2.9-0.21c0 1-0.08 1.6-0.28 2-0.1 0.4-0.5 0.62-1 0.62-0.3 0-0.61-0.11-0.81-0.31-0.2-0.3-0.3-0.59-0.4-1.09s-0.09-1.21-0.09-2.21v-0.78l5.71-0.09v-2.62c0-1.6-0.1-2.78-0.4-3.68-0.2-0.89-0.71-1.59-1.31-1.99-0.7-0.4-1.48-0.59-2.68-0.59zm-50.49 0.09c-1.09 0-2.01 0.18-2.71 0.68-0.7 0.4-1.2 1.12-1.49 2.12-0.3 1-0.5 2.27-0.5 3.87v2.21c0 1.5 0.1 2.78 0.4 3.78 0.2 0.9 0.7 1.62 1.4 2.12 0.69 0.5 1.71 0.68 2.81 0.78 1.19 0 2.08-0.28 2.78-0.68 0.69-0.4 1.09-1.09 1.49-2.09 0.39-1 0.49-2.3 0.49-3.9v-2.21c0-1.6-0.2-2.87-0.49-3.87-0.3-0.89-0.8-1.62-1.49-2.12-0.7-0.5-1.58-0.68-2.68-0.68zm12.18 0.09v11.9c-0.1 0.3-0.29 0.48-0.59 0.68-0.2 0.2-0.51 0.31-0.81 0.31s-0.58-0.1-0.68-0.4-0.18-0.7-0.18-1.4v-10.99h-3.4v11.21c0 1.4 0.18 2.39 0.68 3.09 0.49 0.7 1.21 1 2.21 1 1.4 0 2.48-0.69 3.18-2.09h0.09l0.31 1.78h2.59v-14.99s-3.4 0-3.4-0.09zm17.31 0v11.9c-0.1 0.3-0.29 0.48-0.59 0.68-0.2 0.2-0.51 0.31-0.81 0.31s-0.58-0.1-0.68-0.4-0.21-0.7-0.21-1.4v-10.99h-3.4v11.21c0 1.4 0.21 2.39 0.71 3.09s1.18 1 2.18 1c1.39 0 2.51-0.69 3.21-2.09h0.09l0.28 1.78h2.62v-14.99s-3.4 0-3.4-0.09zm20.9 2.09c0.4 0 0.58 0.11 0.78 0.31 0.2 0.3 0.3 0.59 0.4 1.09s0.09 1.21 0.09 2.21v1.09h-2.5v-1.09c0-1-0-1.71 0.09-2.21 0-0.4 0.11-0.8 0.31-1 0.2-0.3 0.51-0.4 0.81-0.4zm-50.49 0.12c0.5 0 0.8 0.18 1 0.68 0.19 0.5 0.28 1.3 0.28 2.4v4.68c0 1.1-0.08 1.9-0.28 2.4s-0.5 0.68-1 0.68-0.79-0.18-0.99-0.68-0.31-1.3-0.31-2.4v-4.68c0-1.1 0.11-1.9 0.31-2.4s0.49-0.68 0.99-0.68zm39.68 0.09c0.3 0 0.61 0.1 0.81 0.4s0.27 0.67 0.37 1.37c0.1 0.6 0.12 1.51 0.12 2.71l0.09 1.9c0 1.1 0 1.99-0.09 2.59-0.1 0.6-0.19 1.08-0.49 1.28-0.2 0.3-0.5 0.4-0.9 0.4-0.3 0-0.51-0.08-0.81-0.18-0.2-0.1-0.39-0.29-0.59-0.59v-8.5c0.1-0.4 0.29-0.7 0.59-1s0.6-0.4 0.9-0.4z"/></svg>