<svg fill="none" height="40" viewBox="0 0 40 40" width="40" xmlns="http://www.w3.org/2000/svg" ><path d="M20 40c11.046 0 20-8.954 20-20S31.046 0 20 0 0 8.954 0 20s8.954 20 20 20z" fill="#60D1F6" /><path clip-rule="evenodd" d="M13.636 25.394c1.85-.538 4.03-.848 6.365-.848 2.333 0 4.512.31 6.363.847-.472 3.123-3.141 5.516-6.364 5.516s-5.893-2.393-6.364-5.515z" fill="#17181E" fill-rule="evenodd" /><mask height="7" id="mask0" maskUnits="userSpaceOnUse" width="14" x="13" y="24" ><path clip-rule="evenodd" d="M13.636 25.394c1.85-.538 4.03-.848 6.365-.848 2.333 0 4.512.31 6.363.847-.472 3.123-3.141 5.516-6.364 5.516s-5.893-2.393-6.364-5.515z" fill="#fff" fill-rule="evenodd" /></mask><g mask="url(#mask0)"><path d="M20 35.151c2.929 0 5.303-1.662 5.303-3.712 0-2.05-2.374-3.712-5.303-3.712s-5.303 1.662-5.303 3.712c0 2.05 2.374 3.712 5.303 3.712z" fill="#F90043" /></g><path d="M13.182 18.182a2.273 2.273 0 100-4.546 2.273 2.273 0 000 4.546zM26.818 18.182a2.273 2.273 0 100-4.546 2.273 2.273 0 000 4.546z" fill="#17181E" /></svg>